# xmcd
#
# Track frame offsets: 
#        150
#        26412
#        54337
#        74836
#        93768
#        117847
#        131711
#
# Disc length: 2100 seconds
#
# Revision: 0
# Processed by: cddbd v1.5.2PL0 Copyright (c) Steve Scherf et al.
# Submitted via: ExactAudioCopyFreeDBPlugin 1.0
#
DISCID=5b083207
DTITLE=Larry Williams - That Larry Wiiliams: The Resurrection Of Funk
DYEAR=1978
DGENRE=Funk
TTITLE0=Bony Moronie (Disco Queen)
TTITLE1=One Thing Or The Other
TTITLE2=ATS Express
TTITLE3=The Resurection Of Funk (Funk Comes Alive)
TTITLE4=How Can I Believe What You Say
TTITLE5=Funky Force (Is With You)
TTITLE6=Can't Dance To The Music (If It Ain't Got Funky Rhythm)
EXTD=
EXTT0=
EXTT1=
EXTT2=
EXTT3=
EXTT4=
EXTT5=
EXTT6=
PLAYORDER=
